<?xml version="1.0" encoding="UTF-8"?>
<svg width="1200" height="800" viewBox="0 0 1200 800" xmlns="http://www.w3.org/2000/svg" xmlns:xlink="http://www.w3.org/1999/xlink">
  <defs>
    <linearGradient id="g1" x1="0" x2="1">
      <stop offset="0%" stop-color="#667eea"/>
      <stop offset="100%" stop-color="#764ba2"/>
    </linearGradient>
    <linearGradient id="g2" x1="0" x2="1">
      <stop offset="0%" stop-color="#10B981" stop-opacity="0.9"/>
      <stop offset="100%" stop-color="#06b6d4" stop-opacity="0.9"/>
    </linearGradient>
  </defs>
  <rect width="1200" height="800" rx="24" fill="#f8fafc"/>

  <!-- abstract background shapes -->
  <ellipse cx="920" cy="120" rx="260" ry="90" fill="url(#g1)" opacity="0.12"/>
  <ellipse cx="220" cy="700" rx="320" ry="100" fill="url(#g2)" opacity="0.10"/>

  <!-- center card -->
  <rect x="120" y="120" width="960" height="520" rx="16" fill="#fff" stroke="#eef2ff" stroke-width="1"/>

  <!-- user avatars -->
  <circle cx="230" cy="260" r="44" fill="#8B5CF6"/>
  <text x="230" y="268" font-family="Arial, Helvetica, sans-serif" font-size="28" fill="white" text-anchor="middle">C</text>

  <circle cx="320" cy="220" r="34" fill="#10B981"/>
  <text x="320" y="228" font-family="Arial, Helvetica, sans-serif" font-size="20" fill="white" text-anchor="middle">U</text>

  <circle cx="420" cy="260" r="34" fill="#FFD700"/>
  <text x="420" y="268" font-family="Arial, Helvetica, sans-serif" font-size="20" fill="#333" text-anchor="middle">A</text>

  <!-- quiz card examples -->
  <rect x="320" y="350" width="240" height="110" rx="10" fill="#f1f5f9"/>
  <rect x="590" y="350" width="240" height="110" rx="10" fill="#f1f5f9"/>
  <rect x="860" y="350" width="150" height="110" rx="10" fill="#f1f5f9"/>

  <text x="400" y="385" font-family="Arial, Helvetica, sans-serif" font-size="16" fill="#111827">General Knowledge</text>
  <text x="670" y="385" font-family="Arial, Helvetica, sans-serif" font-size="16" fill="#111827">Science Quiz</text>
  <text x="935" y="385" font-family="Arial, Helvetica, sans-serif" font-size="16" fill="#111827">Short Quiz</text>

  <!-- CTA badge -->
  <g transform="translate(140,460)">
    <rect x="0" y="0" width="380" height="80" rx="12" fill="url(#g1)"/>
    <text x="190" y="36" font-family="Arial, Helvetica, sans-serif" font-size="20" fill="white" text-anchor="middle">Become a Creator</text>
    <text x="190" y="58" font-family="Arial, Helvetica, sans-serif" font-size="12" fill="rgba(255,255,255,0.9)" text-anchor="middle">Create quizzes, invite learners, and grow your channel</text>
  </g>

  <!-- subtle footer text -->
  <text x="600" y="760" font-family="Arial, Helvetica, sans-serif" font-size="12" fill="#94a3b8" text-anchor="middle">TriviaVerse — Create, Learn, Compete</text>
</svg>
